<svg width="422" height="162" viewBox="0 0 422 162" fill="none" xmlns="http://www.w3.org/2000/svg">
<rect width="420" height="160" transform="translate(1 1)" fill="white"/>
<rect width="80.5505" height="20.0125" transform="translate(1 1)" fill="white"/>
<path d="M1 3.00126C1 1.89599 1.89599 1 3.00125 1H141.088V21.0125H1V3.00126Z" fill="#055688" stroke="#828282" stroke-width="0.500313"/>
<path d="M8.8063 10.4909H6.48311V11.3316H8.8063V10.4909Z" fill="black"/>
<rect width="140.088" height="20.0125" transform="translate(141.088 1)" fill="white"/>
<rect x="141.088" y="1" width="140.088" height="20.0125" fill="#055688" stroke="#828282" stroke-width="0.500313"/>
<path d="M197.156 8.59865H199.16V14.0031H200.528V8.59865H202.532V7.45767H197.156V8.59865ZM204.123 14.0958C204.849 14.0958 205.318 13.7794 205.558 13.3224H205.597V14.0031H206.888V10.692C206.888 9.5223 205.897 9.03012 204.804 9.03012C203.628 9.03012 202.854 9.59262 202.666 10.4875L203.925 10.5898C204.018 10.2638 204.309 10.0241 204.798 10.0241C205.261 10.0241 205.526 10.2574 205.526 10.6601V10.6793C205.526 10.9957 205.191 11.0372 204.337 11.1203C203.366 11.2098 202.493 11.5358 202.493 12.632C202.493 13.6036 203.187 14.0958 204.123 14.0958ZM204.513 13.1562C204.094 13.1562 203.794 12.9612 203.794 12.5873C203.794 12.2038 204.11 12.0152 204.59 11.9481C204.887 11.9065 205.373 11.8362 205.536 11.7276V12.2485C205.536 12.7631 205.111 13.1562 204.513 13.1562ZM207.944 14.0031H209.306V11.2258C209.306 10.6217 209.747 10.2063 210.347 10.2063C210.536 10.2063 210.795 10.2382 210.923 10.2798V9.07166C210.801 9.0429 210.632 9.02372 210.494 9.02372C209.945 9.02372 209.494 9.34333 209.315 9.95057H209.264V9.09404H207.944V14.0031ZM213.61 15.9463C215.013 15.9463 216.01 15.3071 216.01 14.0511V9.09404H214.658V9.91861H214.607C214.425 9.51911 214.025 9.03012 213.204 9.03012C212.127 9.03012 211.216 9.86747 211.216 11.539C211.216 13.1722 212.101 13.9328 213.207 13.9328C213.99 13.9328 214.428 13.5397 214.607 13.1338H214.664V14.0319C214.664 14.7063 214.233 14.9683 213.642 14.9683C213.041 14.9683 212.737 14.7063 212.625 14.409L211.366 14.5784C211.529 15.3518 212.287 15.9463 213.61 15.9463ZM213.639 12.9101C212.971 12.9101 212.606 12.3795 212.606 11.5326C212.606 10.6984 212.964 10.1136 213.639 10.1136C214.3 10.1136 214.671 10.6729 214.671 11.5326C214.671 12.3987 214.294 12.9101 213.639 12.9101ZM219.331 14.099C220.545 14.099 221.363 13.5077 221.555 12.5969L220.296 12.5138C220.158 12.8877 219.807 13.0827 219.353 13.0827C218.672 13.0827 218.241 12.632 218.241 11.9001V11.8969H221.584V11.523C221.584 9.85469 220.574 9.03012 219.276 9.03012C217.832 9.03012 216.895 10.056 216.895 11.571C216.895 13.1274 217.819 14.099 219.331 14.099ZM218.241 11.0532C218.27 10.4939 218.695 10.0465 219.299 10.0465C219.89 10.0465 220.299 10.4683 220.302 11.0532H218.241ZM225.083 9.09404H224.16V7.9179H222.798V9.09404H222.127V10.1168H222.798V12.6736C222.792 13.6356 223.447 14.1118 224.435 14.0702C224.786 14.0575 225.036 13.9871 225.173 13.9424L224.959 12.9293C224.892 12.942 224.748 12.974 224.62 12.974C224.348 12.974 224.16 12.8717 224.16 12.4946V10.1168H225.083V9.09404Z" fill="#EBEBF5"/>
<rect width="140.088" height="20.0125" transform="translate(281.176 1)" fill="white"/>
<path d="M281.176 1H419.262C420.367 1 421.263 1.89599 421.263 3.00125V21.0125H281.176V1Z" fill="#055688" stroke="#828282" stroke-width="0.500313"/>
<path d="M340.552 7.45767H339.015L341.274 14.0031H343.058L345.314 7.45767H343.78L342.195 12.4307H342.134L340.552 7.45767ZM346.931 14.0958C347.657 14.0958 348.126 13.7794 348.366 13.3224H348.404V14.0031H349.696V10.692C349.696 9.5223 348.705 9.03012 347.612 9.03012C346.436 9.03012 345.662 9.59262 345.474 10.4875L346.733 10.5898C346.826 10.2638 347.116 10.0241 347.605 10.0241C348.069 10.0241 348.334 10.2574 348.334 10.6601V10.6793C348.334 10.9957 347.999 11.0372 347.145 11.1203C346.174 11.2098 345.301 11.5358 345.301 12.632C345.301 13.6036 345.995 14.0958 346.931 14.0958ZM347.321 13.1562C346.902 13.1562 346.602 12.9612 346.602 12.5873C346.602 12.2038 346.918 12.0152 347.398 11.9481C347.695 11.9065 348.181 11.8362 348.344 11.7276V12.2485C348.344 12.7631 347.919 13.1562 347.321 13.1562ZM352.113 7.45767H350.752V14.0031H352.113V7.45767ZM356.352 11.9129C356.355 12.5713 355.905 12.9165 355.416 12.9165C354.901 12.9165 354.569 12.5553 354.566 11.9768V9.09404H353.204V12.2197C353.207 13.3671 353.878 14.067 354.866 14.067C355.604 14.067 356.135 13.6867 356.355 13.1114H356.407V14.0031H357.714V9.09404H356.352V11.9129ZM361.04 14.099C362.254 14.099 363.073 13.5077 363.264 12.5969L362.005 12.5138C361.868 12.8877 361.516 13.0827 361.062 13.0827C360.382 13.0827 359.95 12.632 359.95 11.9001V11.8969H363.293V11.523C363.293 9.85469 362.283 9.03012 360.986 9.03012C359.541 9.03012 358.605 10.056 358.605 11.571C358.605 13.1274 359.528 14.099 361.04 14.099ZM359.95 11.0532C359.979 10.4939 360.404 10.0465 361.008 10.0465C361.599 10.0465 362.008 10.4683 362.012 11.0532H359.95Z" fill="#EBEBF5"/>
<rect width="140" height="60" transform="translate(1 21)" fill="#F3F3F9"/>
<rect x="1" y="21" width="140.088" height="60.0376" fill="#ECECED" stroke="#EBEBF5" stroke-width="0.500313"/>
<path d="M59.0807 47.9705H58.2881V54.516H59.0807V47.9705ZM61.3219 51.5628C61.3219 50.7063 61.8524 50.2205 62.5747 50.2205C63.2747 50.2205 63.6997 50.6775 63.6997 51.4478V54.516H64.454V51.3966C64.454 50.1438 63.786 49.5429 62.7921 49.5429C62.0506 49.5429 61.5904 49.8753 61.3603 50.3739H61.2963V49.6069H60.5676V54.516H61.3219V51.5628ZM65.8323 54.516H66.5865V49.6069H65.8323V54.516ZM66.2158 48.7887C66.5098 48.7887 66.7527 48.5586 66.7527 48.2773C66.7527 47.9961 66.5098 47.766 66.2158 47.766C65.9218 47.766 65.6789 47.9961 65.6789 48.2773C65.6789 48.5586 65.9218 48.7887 66.2158 48.7887ZM70.103 49.6069H69.0547V48.4307H68.3004V49.6069H67.5589V50.2461H68.3004V53.3143C68.3004 54.1708 68.9908 54.5799 69.63 54.5799C69.9112 54.5799 70.0902 54.5287 70.1925 54.4904L70.0391 53.8128C69.9751 53.8256 69.8729 53.8512 69.7067 53.8512C69.3743 53.8512 69.0547 53.7489 69.0547 53.1097V50.2461H70.103V49.6069ZM71.2376 54.516H71.9918V49.6069H71.2376V54.516ZM71.6211 48.7887C71.9151 48.7887 72.158 48.5586 72.158 48.2773C72.158 47.9961 71.9151 47.766 71.6211 47.766C71.327 47.766 71.0842 47.9961 71.0842 48.2773C71.0842 48.5586 71.327 48.7887 71.6211 48.7887ZM74.8179 54.631C75.6744 54.631 76.1219 54.1708 76.2753 53.8512H76.3136V54.516H77.0679V51.2816C77.0679 49.7219 75.879 49.5429 75.2526 49.5429C74.5111 49.5429 73.6673 49.7986 73.2838 50.6935L73.9997 50.9492C74.1659 50.5912 74.559 50.2077 75.2781 50.2077C75.9717 50.2077 76.3136 50.5753 76.3136 51.2049V51.2304C76.3136 51.5948 75.9429 51.5628 75.048 51.6779C74.1372 51.7961 73.1432 51.9975 73.1432 53.1225C73.1432 54.0813 73.8847 54.631 74.8179 54.631ZM74.933 53.9535C74.3321 53.9535 73.8974 53.685 73.8974 53.1608C73.8974 52.5856 74.4216 52.4066 75.0097 52.3299C75.3293 52.2915 76.1858 52.202 76.3136 52.0486V52.739C76.3136 53.3526 75.8278 53.9535 74.933 53.9535ZM79.1989 47.9705H78.4446V54.516H79.1989V47.9705ZM84.0576 50.7063C83.8211 50.0096 83.2906 49.5429 82.319 49.5429C81.2835 49.5429 80.5164 50.131 80.5164 50.962C80.5164 51.6395 80.9191 52.0934 81.8204 52.3043L82.6386 52.4961C83.134 52.6111 83.3673 52.8476 83.3673 53.1864C83.3673 53.6083 82.9198 53.9535 82.2167 53.9535C81.5999 53.9535 81.2131 53.6882 81.0789 53.1608L80.363 53.3398C80.5388 54.174 81.2259 54.6182 82.2295 54.6182C83.3705 54.6182 84.1471 53.995 84.1471 53.1481C84.1471 52.4641 83.7188 52.0327 82.8431 51.8185L82.1144 51.6395C81.5327 51.4957 81.2707 51.3008 81.2707 50.9236C81.2707 50.5018 81.7181 50.1949 82.319 50.1949C82.9773 50.1949 83.249 50.5593 83.38 50.8981L84.0576 50.7063Z" fill="black"/>
<rect width="140.088" height="20.0125" transform="translate(141.088 21.0125)" fill="#ECECED"/>
<rect x="141.088" y="21.0125" width="140.088" height="20.0125" fill="#ECECED" stroke="#CAC9C9" stroke-opacity="0.5" stroke-width="0.500313"/>
<path d="M208.026 29.1951H207.35L208.564 31.1054L207.35 33.0156H208.026L208.942 31.5332L209.857 33.0156H210.534L209.3 31.1054L210.534 29.1951H209.857L208.942 30.7571L208.026 29.1951ZM213.023 33.0853C214.147 33.0853 214.794 32.1326 214.794 30.4686C214.794 28.817 214.137 27.8519 213.023 27.8519C211.909 27.8519 211.252 28.817 211.252 30.4686C211.252 32.1326 211.899 33.0853 213.023 33.0853ZM213.023 32.5381C212.282 32.5381 211.849 31.7943 211.849 30.4686C211.849 29.1453 212.287 28.3892 213.023 28.3892C213.759 28.3892 214.197 29.1453 214.197 30.4686C214.197 31.7943 213.764 32.5381 213.023 32.5381Z" fill="black"/>
<rect width="140.088" height="20.0125" transform="translate(281.176 21.0125)" fill="#ECECED"/>
<rect x="281.176" y="21.0125" width="140.088" height="20.0125" fill="#ECECED" stroke="#CAC9C9" stroke-opacity="0.5" stroke-width="0.500313"/>
<path d="M335.776 33.6524H337.248V33.1649H336.333V27.7723H337.248V27.2848H335.776V33.6524ZM339.676 33.0853C340.801 33.0853 341.447 32.1326 341.447 30.4686C341.447 28.817 340.791 27.8519 339.676 27.8519C338.562 27.8519 337.905 28.817 337.905 30.4686C337.905 32.1326 338.552 33.0853 339.676 33.0853ZM339.676 32.5381C338.935 32.5381 338.502 31.7943 338.502 30.4686C338.502 29.1453 338.94 28.3892 339.676 28.3892C340.413 28.3892 340.851 29.1453 340.851 30.4686C340.851 31.7943 340.418 32.5381 339.676 32.5381ZM342.653 33.0554C342.899 33.0554 343.1 32.854 343.1 32.6077C343.1 32.3615 342.899 32.16 342.653 32.16C342.406 32.16 342.205 32.3615 342.205 32.6077C342.205 32.854 342.406 33.0554 342.653 33.0554ZM345.326 27.9215H344.709L343.436 28.7672V29.3941L344.679 28.5683H344.709V33.0156H345.326V27.9215ZM350.422 33.0853C351.547 33.0853 352.193 32.1326 352.193 30.4686C352.193 28.817 351.537 27.8519 350.422 27.8519C349.308 27.8519 348.651 28.817 348.651 30.4686C348.651 32.1326 349.298 33.0853 350.422 33.0853ZM350.422 32.5381C349.681 32.5381 349.248 31.7943 349.248 30.4686C349.248 29.1453 349.686 28.3892 350.422 28.3892C351.159 28.3892 351.597 29.1453 351.597 30.4686C351.597 31.7943 351.164 32.5381 350.422 32.5381ZM353.399 33.0554C353.645 33.0554 353.846 32.854 353.846 32.6077C353.846 32.3615 353.645 32.16 353.399 32.16C353.152 32.16 352.951 32.3615 352.951 32.6077C352.951 32.854 353.152 33.0554 353.399 33.0554ZM354.89 33.0156H358.103V32.4684H355.735V32.4286L356.88 31.2048C357.755 30.2671 358.014 29.8293 358.014 29.2647C358.014 28.4787 357.377 27.8519 356.482 27.8519C355.589 27.8519 354.91 28.4588 354.91 29.3543H355.497C355.497 28.7747 355.872 28.3892 356.462 28.3892C357.014 28.3892 357.437 28.7274 357.437 29.2647C357.437 29.7348 357.161 30.083 356.571 30.7273L354.89 32.5679V33.0156ZM362.762 33.0853C363.887 33.0853 364.533 32.1326 364.533 30.4686C364.533 28.817 363.877 27.8519 362.762 27.8519C361.648 27.8519 360.991 28.817 360.991 30.4686C360.991 32.1326 361.638 33.0853 362.762 33.0853ZM362.762 32.5381C362.021 32.5381 361.588 31.7943 361.588 30.4686C361.588 29.1453 362.026 28.3892 362.762 28.3892C363.499 28.3892 363.936 29.1453 363.936 30.4686C363.936 31.7943 363.503 32.5381 362.762 32.5381ZM366.662 27.2848H365.19V27.7723H366.105V33.1649H365.19V33.6524H366.662V27.2848Z" fill="black"/>
<rect width="140.088" height="20.0125" transform="translate(141.088 41.0251)" fill="#F3F3F9"/>
<rect x="141.088" y="41.0251" width="140.088" height="20.0125" fill="#ECECED" stroke="#CAC9C9" stroke-opacity="0.5" stroke-width="0.500313"/>
<path d="M207.102 53.1078C207.948 53.1078 208.505 52.5904 208.605 51.9139H208.018C207.908 52.3317 207.56 52.5805 207.102 52.5805C206.406 52.5805 205.958 52.0034 205.958 51.1179C205.958 50.2523 206.416 49.6852 207.102 49.6852C207.62 49.6852 207.928 50.0036 208.018 50.3518H208.605C208.505 49.6354 207.898 49.1579 207.092 49.1579C206.058 49.1579 205.371 49.9737 205.371 51.1378C205.371 52.282 206.028 53.1078 207.102 53.1078ZM210.587 53.1177C211.254 53.1177 211.602 52.7596 211.721 52.5108H211.751V53.0282H212.338V50.511C212.338 49.2972 211.413 49.1579 210.925 49.1579C210.348 49.1579 209.692 49.3569 209.393 50.0533L209.95 50.2523C210.08 49.9737 210.386 49.6752 210.945 49.6752C211.485 49.6752 211.751 49.9613 211.751 50.4513V50.4712C211.751 50.7548 211.463 50.7299 210.766 50.8194C210.057 50.9115 209.284 51.0682 209.284 51.9437C209.284 52.6899 209.861 53.1177 210.587 53.1177ZM210.677 52.5904C210.209 52.5904 209.871 52.3815 209.871 51.9736C209.871 51.5258 210.279 51.3865 210.736 51.3268C210.985 51.297 211.652 51.2274 211.751 51.108V51.6452C211.751 52.1228 211.373 52.5904 210.677 52.5904ZM215.061 53.0978C216.186 53.0978 216.832 52.1452 216.832 50.4811C216.832 48.8295 216.176 47.8645 215.061 47.8645C213.947 47.8645 213.29 48.8295 213.29 50.4811C213.29 52.1452 213.937 53.0978 215.061 53.0978ZM215.061 52.5506C214.32 52.5506 213.887 51.8069 213.887 50.4811C213.887 49.1579 214.325 48.4017 215.061 48.4017C215.798 48.4017 216.235 49.1579 216.235 50.4811C216.235 51.8069 215.803 52.5506 215.061 52.5506Z" fill="black"/>
<rect width="140.088" height="20.0125" transform="translate(281.176 41.0251)" fill="#ECECED"/>
<rect x="281.176" y="41.0251" width="140.088" height="20.0125" fill="#ECECED" stroke="#CAC9C9" stroke-opacity="0.5" stroke-width="0.500313"/>
<path d="M340.971 53.665H342.443V53.1774H341.528V47.7849H342.443V47.2973H340.971V53.665ZM344.872 53.0978C345.996 53.0978 346.643 52.1452 346.643 50.4811C346.643 48.8295 345.986 47.8645 344.872 47.8645C343.757 47.8645 343.101 48.8295 343.101 50.4811C343.101 52.1452 343.747 53.0978 344.872 53.0978ZM344.872 52.5506C344.13 52.5506 343.698 51.8069 343.698 50.4811C343.698 49.1579 344.135 48.4017 344.872 48.4017C345.608 48.4017 346.046 49.1579 346.046 50.4811C346.046 51.8069 345.613 52.5506 344.872 52.5506ZM351.219 53.0978C352.344 53.0978 352.99 52.1452 352.99 50.4811C352.99 48.8295 352.334 47.8645 351.219 47.8645C350.105 47.8645 349.448 48.8295 349.448 50.4811C349.448 52.1452 350.095 53.0978 351.219 53.0978ZM351.219 52.5506C350.478 52.5506 350.045 51.8069 350.045 50.4811C350.045 49.1579 350.483 48.4017 351.219 48.4017C351.956 48.4017 352.393 49.1579 352.393 50.4811C352.393 51.8069 351.961 52.5506 351.219 52.5506ZM357.567 53.0978C358.691 53.0978 359.338 52.1452 359.338 50.4811C359.338 48.8295 358.681 47.8645 357.567 47.8645C356.453 47.8645 355.796 48.8295 355.796 50.4811C355.796 52.1452 356.443 53.0978 357.567 53.0978ZM357.567 52.5506C356.826 52.5506 356.393 51.8069 356.393 50.4811C356.393 49.1579 356.831 48.4017 357.567 48.4017C358.303 48.4017 358.741 49.1579 358.741 50.4811C358.741 51.8069 358.308 52.5506 357.567 52.5506ZM361.467 47.2973H359.995V47.7849H360.91V53.1774H359.995V53.665H361.467V47.2973Z" fill="black"/>
<rect width="140.088" height="20.0125" transform="translate(141.088 61.0376)" fill="#F3F3F9"/>
<rect x="141.088" y="61.0376" width="140.088" height="20.0125" fill="#ECECED" stroke="#CAC9C9" stroke-opacity="0.5" stroke-width="0.500313"/>
<path d="M207.947 73.0407H214.315L211.131 67.6283L207.947 73.0407ZM208.905 72.4935L211.131 68.7078L213.357 72.4935H208.905Z" fill="black"/>
<rect width="140.088" height="20.0125" transform="translate(281.176 61.0376)" fill="#ECECED"/>
<rect x="281.176" y="61.0376" width="140.088" height="20.0125" fill="#ECECED" stroke="#CAC9C9" stroke-opacity="0.5" stroke-width="0.500313"/>
<path d="M351.238 73.1104C352.226 73.1104 352.959 72.491 352.959 71.6578C352.959 71.0111 352.576 70.541 351.934 70.434V70.3942C352.449 70.2375 352.77 69.8146 352.77 69.2401C352.77 68.5187 352.201 67.877 351.258 67.877C350.377 67.877 349.646 68.4192 349.616 69.2202H350.213C350.236 68.7127 350.718 68.4143 351.248 68.4143C351.81 68.4143 352.173 68.755 352.173 69.2699C352.173 69.8072 351.753 70.1554 351.148 70.1554H350.741V70.7026H351.148C351.922 70.7026 352.352 71.0956 352.352 71.6578C352.352 72.1975 351.882 72.5632 351.228 72.5632C350.639 72.5632 350.171 72.2597 350.134 71.7672H349.507C349.544 72.5681 350.251 73.1104 351.238 73.1104Z" fill="black"/>
<rect width="140" height="20" transform="translate(1 81)" fill="#E7E7EB"/>
<rect x="1" y="81" width="140.088" height="20.0125" fill="#ECECED" stroke="#CAC9C9" stroke-opacity="0.5" stroke-width="0.500313"/>
<path d="M57.9301 94.1054C59.2597 94.1054 60.1546 93.0955 60.1546 91.5742C60.1546 90.0401 59.2597 89.0301 57.9301 89.0301C56.6006 89.0301 55.7057 90.0401 55.7057 91.5742C55.7057 93.0955 56.6006 94.1054 57.9301 94.1054ZM57.9301 93.4279C56.9202 93.4279 56.4599 92.5585 56.4599 91.5742C56.4599 90.5898 56.9202 89.7077 57.9301 89.7077C58.9401 89.7077 59.4003 90.5898 59.4003 91.5742C59.4003 92.5585 58.9401 93.4279 57.9301 93.4279ZM61.3059 95.8441H62.0602V93.2489H62.1241C62.2903 93.5173 62.6099 94.1054 63.5559 94.1054C64.7832 94.1054 65.6397 93.121 65.6397 91.5614C65.6397 90.0145 64.7832 89.0301 63.5431 89.0301C62.5843 89.0301 62.2903 89.6182 62.1241 89.8739H62.0346V89.0941H61.3059V95.8441ZM62.0474 91.5486C62.0474 90.4492 62.5332 89.7077 63.4536 89.7077C64.4125 89.7077 64.8855 90.5131 64.8855 91.5486C64.8855 92.5969 64.3997 93.4279 63.4536 93.4279C62.546 93.4279 62.0474 92.6608 62.0474 91.5486ZM68.9252 89.0941H67.8769V87.9179H67.1227V89.0941H66.3812V89.7333H67.1227V92.8014C67.1227 93.658 67.813 94.0671 68.4522 94.0671C68.7335 94.0671 68.9125 94.0159 69.0147 93.9776L68.8613 93.3C68.7974 93.3128 68.6951 93.3384 68.5289 93.3384C68.1965 93.3384 67.8769 93.2361 67.8769 92.5969V89.7333H68.9252V89.0941ZM70.0598 94.0031H70.8141V89.0941H70.0598V94.0031ZM70.4433 88.2759C70.7374 88.2759 70.9803 88.0458 70.9803 87.7645C70.9803 87.4833 70.7374 87.2531 70.4433 87.2531C70.1493 87.2531 69.9064 87.4833 69.9064 87.7645C69.9064 88.0458 70.1493 88.2759 70.4433 88.2759ZM74.1899 94.1054C75.5194 94.1054 76.4143 93.0955 76.4143 91.5742C76.4143 90.0401 75.5194 89.0301 74.1899 89.0301C72.8603 89.0301 71.9655 90.0401 71.9655 91.5742C71.9655 93.0955 72.8603 94.1054 74.1899 94.1054ZM74.1899 93.4279C73.1799 93.4279 72.7197 92.5585 72.7197 91.5742C72.7197 90.5898 73.1799 89.7077 74.1899 89.7077C75.1998 89.7077 75.6601 90.5898 75.6601 91.5742C75.6601 92.5585 75.1998 93.4279 74.1899 93.4279ZM78.3199 91.05C78.3199 90.1935 78.8505 89.7077 79.5728 89.7077C80.2727 89.7077 80.6978 90.1647 80.6978 90.935V94.0031H81.452V90.8838C81.452 89.631 80.7841 89.0301 79.7901 89.0301C79.0486 89.0301 78.5884 89.3625 78.3583 89.8611H78.2944V89.0941H77.5657V94.0031H78.3199V91.05ZM86.3076 90.1935C86.0711 89.4968 85.5406 89.0301 84.569 89.0301C83.5335 89.0301 82.7664 89.6182 82.7664 90.4492C82.7664 91.1267 83.1691 91.5806 84.0704 91.7915L84.8886 91.9833C85.384 92.0983 85.6173 92.3348 85.6173 92.6736C85.6173 93.0955 85.1698 93.4406 84.4667 93.4406C83.8499 93.4406 83.4631 93.1754 83.3289 92.648L82.613 92.827C82.7888 93.6612 83.4759 94.1054 84.4795 94.1054C85.6205 94.1054 86.3971 93.4822 86.3971 92.6352C86.3971 91.9513 85.9688 91.5198 85.0931 91.3057L84.3644 91.1267C83.7827 90.9829 83.5207 90.7879 83.5207 90.4108C83.5207 89.9889 83.9681 89.6821 84.569 89.6821C85.2273 89.6821 85.499 90.0465 85.63 90.3852L86.3076 90.1935Z" fill="black"/>
<rect width="140.088" height="20.0125" transform="translate(141.088 81.0502)" fill="#F3F3F9"/>
<rect x="141.088" y="81.0502" width="140.088" height="20.0125" fill="#ECECED" stroke="#CAC9C9" stroke-opacity="0.5" stroke-width="0.500313"/>
<path d="M210.936 93.1329C211.673 93.1329 211.921 92.6752 212.051 92.4663H212.12V93.0533H212.687V87.9592H212.1V89.8397H212.051C211.921 89.6407 211.693 89.183 210.946 89.183C209.981 89.183 209.315 89.9491 209.315 91.153C209.315 92.3668 209.981 93.1329 210.936 93.1329ZM211.016 92.6056C210.28 92.6056 209.902 91.9589 209.902 91.143C209.902 90.3371 210.27 89.7103 211.016 89.7103C211.732 89.7103 212.11 90.2874 212.11 91.143C212.11 92.0086 211.722 92.6056 211.016 92.6056Z" fill="black"/>
<rect width="140.088" height="20.0125" transform="translate(281.176 81.0502)" fill="#ECECED"/>
<rect x="281.176" y="81.0502" width="140.088" height="20.0125" fill="#ECECED" stroke="#CAC9C9" stroke-opacity="0.5" stroke-width="0.500313"/>
<path d="M351.91 87.9592H351.293L350.019 88.8049V89.4317L351.263 88.6059H351.293V93.0533H351.91V87.9592Z" fill="black"/>
<rect width="140" height="60" transform="translate(1 101)" fill="#E7E7EB"/>
<rect x="1" y="101" width="140.088" height="60.0376" fill="#ECECED" stroke="#CAC9C9" stroke-opacity="0.5" stroke-width="0.500313"/>
<path d="M67.6113 134.618C68.6979 134.618 69.4138 133.953 69.5417 133.084H68.7874C68.6468 133.621 68.1993 133.941 67.6113 133.941C66.7164 133.941 66.1411 133.199 66.1411 132.061C66.1411 130.949 66.7292 130.221 67.6113 130.221C68.276 130.221 68.6724 130.63 68.7874 131.077H69.5417C69.4138 130.157 68.634 129.543 67.5985 129.543C66.2689 129.543 65.3868 130.591 65.3868 132.087C65.3868 133.557 66.2306 134.618 67.6113 134.618ZM72.0889 134.631C72.9454 134.631 73.3929 134.171 73.5463 133.851H73.5846V134.516H74.3389V131.282C74.3389 129.722 73.15 129.543 72.5236 129.543C71.7821 129.543 70.9383 129.799 70.5548 130.694L71.2707 130.949C71.4369 130.591 71.83 130.208 72.5491 130.208C73.2427 130.208 73.5846 130.575 73.5846 131.205V131.23C73.5846 131.595 73.2139 131.563 72.319 131.678C71.4081 131.796 70.4142 131.998 70.4142 133.123C70.4142 134.081 71.1557 134.631 72.0889 134.631ZM72.204 133.953C71.6031 133.953 71.1684 133.685 71.1684 133.161C71.1684 132.586 71.6926 132.407 72.2807 132.33C72.6003 132.292 73.4568 132.202 73.5846 132.049V132.739C73.5846 133.353 73.0988 133.953 72.204 133.953ZM76.4698 127.971H75.7156V134.516H76.4698V127.971Z" fill="black"/>
<rect width="140.088" height="20.0125" transform="translate(141.088 101.063)" fill="#F3F3F9"/>
<rect x="141.088" y="101.063" width="140.088" height="20.0125" fill="#ECECED" stroke="#CAC9C9" stroke-opacity="0.5" stroke-width="0.500313"/>
<path d="M207.708 113.066H208.295V111.636L208.706 111.255L210.136 113.066H210.882L209.149 110.877L210.763 109.245H210.037L208.365 110.947H208.295V107.972H207.708V113.066ZM211.598 113.066H212.215V110.787H214.424V110.24H212.215V108.519H214.652V107.972H211.598V113.066Z" fill="black"/>
<rect width="140.088" height="20.0125" transform="translate(281.176 101.063)" fill="#ECECED"/>
<rect x="281.176" y="101.063" width="140.088" height="20.0125" fill="#ECECED" stroke="#CAC9C9" stroke-opacity="0.5" stroke-width="0.500313"/>
<path d="M346.097 107.902C345.063 107.89 344.396 108.668 344.396 109.603C344.396 110.588 345.122 111.295 345.998 111.295C346.525 111.295 346.973 111.036 347.251 110.618H347.291C347.291 111.872 346.804 112.588 346.018 112.588C345.48 112.588 345.152 112.25 345.043 111.782H344.436C344.555 112.588 345.162 113.135 346.018 113.135C347.162 113.135 347.868 112.121 347.868 110.31C347.868 108.439 346.933 107.912 346.097 107.902ZM346.097 108.449C346.734 108.449 347.202 108.997 347.202 109.593C347.202 110.2 346.704 110.748 346.077 110.748C345.451 110.748 344.993 110.24 344.993 109.603C344.993 108.967 345.47 108.449 346.097 108.449ZM349.106 113.106C349.353 113.106 349.554 112.904 349.554 112.658C349.554 112.412 349.353 112.21 349.106 112.21C348.86 112.21 348.659 112.412 348.659 112.658C348.659 112.904 348.86 113.106 349.106 113.106ZM352.072 113.135C353.089 113.135 353.798 112.541 353.803 111.713C353.798 111.068 353.368 110.521 352.818 110.419V110.389C353.296 110.265 353.609 109.797 353.614 109.255C353.609 108.479 352.957 107.902 352.072 107.902C351.176 107.902 350.525 108.479 350.53 109.255C350.525 109.797 350.838 110.265 351.326 110.389V110.419C350.766 110.521 350.336 111.068 350.341 111.713C350.336 112.541 351.045 113.135 352.072 113.135ZM352.072 112.588C351.373 112.588 350.943 112.23 350.948 111.683C350.943 111.108 351.418 110.698 352.072 110.698C352.716 110.698 353.191 111.108 353.196 111.683C353.191 112.23 352.761 112.588 352.072 112.588ZM352.072 110.171C351.515 110.171 351.122 109.822 351.127 109.295C351.122 108.778 351.5 108.439 352.072 108.439C352.634 108.439 353.012 108.778 353.017 109.295C353.012 109.822 352.619 110.171 352.072 110.171ZM356.348 113.135C357.318 113.135 358.03 112.419 358.03 111.444C358.03 110.457 357.343 109.733 356.408 109.733C356.065 109.733 355.731 109.855 355.522 110.021H355.493L355.672 108.519H357.801V107.972H355.154L354.846 110.479L355.423 110.549C355.634 110.397 355.995 110.287 356.308 110.29C356.958 110.295 357.433 110.787 357.433 111.454C357.433 112.108 356.975 112.588 356.348 112.588C355.826 112.588 355.411 112.252 355.363 111.792H354.766C354.804 112.568 355.473 113.135 356.348 113.135Z" fill="black"/>
<rect width="140.088" height="20.0125" transform="translate(141.088 121.075)" fill="#F3F3F9"/>
<rect x="141.088" y="121.075" width="140.088" height="20.0125" fill="#ECECED" stroke="#CAC9C9" stroke-opacity="0.5" stroke-width="0.500313"/>
<path d="M208.881 133.158C209.617 133.158 209.866 132.7 209.995 132.491H210.065V133.078H210.632V127.984H210.045V129.865H209.995C209.866 129.666 209.637 129.208 208.891 129.208C207.926 129.208 207.259 129.974 207.259 131.178C207.259 132.392 207.926 133.158 208.881 133.158ZM208.96 132.631C208.224 132.631 207.846 131.984 207.846 131.168C207.846 130.362 208.214 129.735 208.96 129.735C209.677 129.735 210.055 130.312 210.055 131.168C210.055 132.034 209.667 132.631 208.96 132.631ZM211.868 133.078H212.485V130.8H214.694V130.253H212.485V128.531H214.923V127.984H211.868V133.078Z" fill="black"/>
<rect width="140.088" height="20.0125" transform="translate(281.176 121.075)" fill="#ECECED"/>
<rect x="281.176" y="121.075" width="140.088" height="20.0125" fill="#ECECED" stroke="#CAC9C9" stroke-opacity="0.5" stroke-width="0.500313"/>
<path d="M340.522 130.258H338.293V130.805H340.522V130.258ZM343.184 133.148C344.171 133.148 344.905 132.529 344.905 131.695C344.905 131.049 344.522 130.579 343.88 130.472V130.432C344.395 130.275 344.716 129.852 344.716 129.278C344.716 128.556 344.146 127.915 343.204 127.915C342.323 127.915 341.592 128.457 341.562 129.258H342.159C342.181 128.75 342.664 128.452 343.194 128.452C343.756 128.452 344.119 128.793 344.119 129.308C344.119 129.845 343.699 130.193 343.094 130.193H342.686V130.74H343.094C343.868 130.74 344.298 131.133 344.298 131.695C344.298 132.235 343.828 132.601 343.174 132.601C342.584 132.601 342.117 132.297 342.079 131.805H341.452C341.49 132.606 342.196 133.148 343.184 133.148ZM346.203 133.118C346.449 133.118 346.65 132.917 346.65 132.67C346.65 132.424 346.449 132.223 346.203 132.223C345.956 132.223 345.755 132.424 345.755 132.67C345.755 132.917 345.956 133.118 346.203 133.118ZM347.694 133.078H350.908V132.531H348.54V132.491L349.684 131.268C350.559 130.33 350.818 129.892 350.818 129.327C350.818 128.541 350.181 127.915 349.286 127.915C348.393 127.915 347.714 128.522 347.714 129.417H348.301C348.301 128.837 348.676 128.452 349.266 128.452C349.818 128.452 350.241 128.79 350.241 129.327C350.241 129.798 349.965 130.146 349.375 130.79L347.694 132.631V133.078ZM353.566 133.148C354.584 133.148 355.293 132.554 355.298 131.725C355.293 131.081 354.862 130.534 354.313 130.432V130.402C354.79 130.278 355.104 129.81 355.109 129.268C355.104 128.492 354.452 127.915 353.566 127.915C352.671 127.915 352.019 128.492 352.024 129.268C352.019 129.81 352.333 130.278 352.82 130.402V130.432C352.261 130.534 351.83 131.081 351.835 131.725C351.83 132.554 352.539 133.148 353.566 133.148ZM353.566 132.601C352.868 132.601 352.437 132.243 352.442 131.695C352.437 131.121 352.912 130.71 353.566 130.71C354.211 130.71 354.686 131.121 354.691 131.695C354.686 132.243 354.255 132.601 353.566 132.601ZM353.566 130.183C353.009 130.183 352.616 129.835 352.621 129.308C352.616 128.79 352.994 128.452 353.566 128.452C354.129 128.452 354.507 128.79 354.512 129.308C354.507 129.835 354.114 130.183 353.566 130.183ZM357.972 133.148C358.96 133.148 359.693 132.529 359.693 131.695C359.693 131.049 359.31 130.579 358.669 130.472V130.432C359.184 130.275 359.504 129.852 359.504 129.278C359.504 128.556 358.935 127.915 357.992 127.915C357.112 127.915 356.38 128.457 356.35 129.258H356.947C356.97 128.75 357.452 128.452 357.982 128.452C358.544 128.452 358.907 128.793 358.907 129.308C358.907 129.845 358.487 130.193 357.883 130.193H357.475V130.74H357.883C358.656 130.74 359.087 131.133 359.087 131.695C359.087 132.235 358.616 132.601 357.962 132.601C357.373 132.601 356.905 132.297 356.868 131.805H356.241C356.278 132.606 356.985 133.148 357.972 133.148ZM362.432 133.148C363.42 133.148 364.153 132.529 364.153 131.695C364.153 131.049 363.77 130.579 363.129 130.472V130.432C363.643 130.275 363.964 129.852 363.964 129.278C363.964 128.556 363.395 127.915 362.452 127.915C361.571 127.915 360.84 128.457 360.81 129.258H361.407C361.43 128.75 361.912 128.452 362.442 128.452C363.004 128.452 363.367 128.793 363.367 129.308C363.367 129.845 362.947 130.193 362.343 130.193H361.935V130.74H362.343C363.116 130.74 363.546 131.133 363.546 131.695C363.546 132.235 363.076 132.601 362.422 132.601C361.833 132.601 361.365 132.297 361.328 131.805H360.701C360.738 132.606 361.445 133.148 362.432 133.148Z" fill="black"/>
<rect width="140.088" height="20.0125" transform="translate(141.088 141.088)" fill="#F3F3F9"/>
<rect x="141.088" y="141.088" width="140.088" height="20.0125" fill="#ECECED" stroke="#CAC9C9" stroke-opacity="0.5" stroke-width="0.500313"/>
<path d="M207.429 153.091H208.046V151.439L208.683 150.723L210.454 153.091H211.2L209.061 150.295L211.2 147.997H210.394L208.105 150.524H208.046V147.997H207.429V153.091ZM213.081 153.17C213.817 153.17 214.066 152.713 214.195 152.504H214.265V153.091H214.832V147.997H214.245V149.877H214.195C214.066 149.678 213.837 149.221 213.091 149.221C212.126 149.221 211.459 149.987 211.459 151.191C211.459 152.404 212.126 153.17 213.081 153.17ZM213.16 152.643C212.424 152.643 212.046 151.996 212.046 151.181C212.046 150.375 212.414 149.748 213.16 149.748C213.877 149.748 214.255 150.325 214.255 151.181C214.255 152.046 213.867 152.643 213.16 152.643Z" fill="black"/>
<rect width="140.088" height="20.0125" transform="translate(281.176 141.088)" fill="#ECECED"/>
<path d="M281.176 141.088H421.263V159.099C421.263 160.204 420.367 161.1 419.262 161.1H281.176V141.088Z" fill="#ECECED" stroke="#CAC9C9" stroke-opacity="0.5" stroke-width="0.500313"/>
<path d="M345.248 153.091H348.462V152.544H346.094V152.504L347.238 151.28C348.114 150.342 348.373 149.905 348.373 149.34C348.373 148.554 347.736 147.927 346.84 147.927C345.947 147.927 345.268 148.534 345.268 149.429H345.855C345.855 148.85 346.231 148.464 346.82 148.464C347.373 148.464 347.796 148.803 347.796 149.34C347.796 149.81 347.519 150.158 346.93 150.803L345.248 152.643V153.091ZM351.151 153.161C352.275 153.161 352.922 152.208 352.922 150.544C352.922 148.892 352.265 147.927 351.151 147.927C350.037 147.927 349.38 148.892 349.38 150.544C349.38 152.208 350.027 153.161 351.151 153.161ZM351.151 152.613C350.41 152.613 349.977 151.87 349.977 150.544C349.977 149.221 350.415 148.464 351.151 148.464C351.887 148.464 352.325 149.221 352.325 150.544C352.325 151.87 351.892 152.613 351.151 152.613ZM355.529 153.161C356.653 153.161 357.3 152.208 357.3 150.544C357.3 148.892 356.643 147.927 355.529 147.927C354.414 147.927 353.758 148.892 353.758 150.544C353.758 152.208 354.404 153.161 355.529 153.161ZM355.529 152.613C354.787 152.613 354.355 151.87 354.355 150.544C354.355 149.221 354.792 148.464 355.529 148.464C356.265 148.464 356.703 149.221 356.703 150.544C356.703 151.87 356.27 152.613 355.529 152.613Z" fill="black"/>
</svg>
