<svg width="353" height="24" viewBox="0 0 353 24" fill="none" xmlns="http://www.w3.org/2000/svg">
<path d="M12.177 23.3C11.357 21.42 10.537 19.54 9.71703 17.66C8.89703 15.78 8.08703 13.89 7.28703 11.99C6.92703 11.17 6.54703 10.22 6.14703 9.14C5.74703 8.06 5.36703 6.95 5.00703 5.81C5.00703 6.33 5.00703 6.83 5.00703 7.31C5.00703 7.77 5.00703 8.23 5.00703 8.69C4.98703 9.53 4.95703 10.54 4.91703 11.72C4.89703 12.88 4.86703 14.09 4.82703 15.35C4.80703 16.59 4.78703 17.76 4.76703 18.86C4.76703 19.34 4.75703 19.81 4.73703 20.27C4.71703 20.73 4.68703 21.13 4.64703 21.47C5.00703 21.45 5.38703 21.43 5.78703 21.41C6.20703 21.37 6.57703 21.35 6.89703 21.35V23H0.807031V21.68C1.64703 21.66 2.19703 21.43 2.45703 20.99C2.71703 20.53 2.86703 19.86 2.90703 18.98L3.32703 6.02C3.34703 5.58 3.36703 5.15 3.38703 4.73C3.40703 4.29 3.42703 3.89 3.44703 3.53C3.08703 3.55 2.70703 3.57 2.30703 3.59C1.90703 3.61 1.55703 3.62 1.25703 3.62V2H6.50703L11.457 13.82C11.797 14.64 12.157 15.52 12.537 16.46C12.917 17.38 13.267 18.23 13.587 19.01H13.647C13.867 18.41 14.107 17.75 14.367 17.03C14.647 16.31 14.897 15.67 15.117 15.11C15.957 12.97 16.817 10.82 17.697 8.66C18.597 6.48 19.487 4.26 20.367 2H25.647V3.32C24.927 3.32 24.377 3.52 23.997 3.92C23.637 4.32 23.487 5.14 23.547 6.38L24.207 19.31C24.247 19.71 24.257 20.1 24.237 20.48C24.237 20.86 24.227 21.18 24.207 21.44C24.567 21.42 24.947 21.4 25.347 21.38C25.767 21.36 26.127 21.35 26.427 21.35V23H19.167V21.68C20.027 21.64 20.597 21.38 20.877 20.9C21.157 20.42 21.267 19.6 21.207 18.44L20.727 9.71C20.707 9.27 20.677 8.71 20.637 8.03C20.597 7.35 20.557 6.69 20.517 6.05C20.457 6.21 20.397 6.36 20.337 6.5C20.277 6.64 20.217 6.8 20.157 6.98L13.707 23.3H12.177ZM35.8426 23.48C34.4226 23.48 33.1426 23.16 32.0026 22.52C30.8626 21.88 29.9526 20.99 29.2726 19.85C28.6126 18.69 28.2826 17.36 28.2826 15.86C28.2826 14.24 28.6126 12.81 29.2726 11.57C29.9526 10.31 30.8626 9.32 32.0026 8.6C33.1426 7.88 34.4126 7.52 35.8126 7.52C37.2326 7.52 38.5126 7.85 39.6526 8.51C40.7926 9.15 41.6926 10.05 42.3526 11.21C43.0326 12.35 43.3726 13.67 43.3726 15.17C43.3726 16.77 43.0426 18.2 42.3826 19.46C41.7226 20.7 40.8226 21.68 39.6826 22.4C38.5626 23.12 37.2826 23.48 35.8426 23.48ZM36.0526 21.98C37.0126 21.98 37.7626 21.69 38.3026 21.11C38.8626 20.51 39.2626 19.76 39.5026 18.86C39.7426 17.94 39.8626 16.99 39.8626 16.01C39.8626 15.15 39.7826 14.31 39.6226 13.49C39.4826 12.65 39.2526 11.89 38.9326 11.21C38.6126 10.53 38.1926 9.99 37.6726 9.59C37.1526 9.17 36.5226 8.97 35.7826 8.99C34.8226 8.99 34.0426 9.28 33.4426 9.86C32.8626 10.44 32.4426 11.19 32.1826 12.11C31.9226 13.01 31.7926 13.97 31.7926 14.99C31.7926 16.17 31.9426 17.29 32.2426 18.35C32.5426 19.41 33.0026 20.28 33.6226 20.96C34.2626 21.64 35.0726 21.98 36.0526 21.98ZM61.6332 23.42L50.4732 8.6C50.2532 8.34 50.0432 8.07 49.8432 7.79C49.6432 7.51 49.4332 7.22 49.2132 6.92H49.1832L49.2732 18.59C49.2732 19.11 49.2632 19.62 49.2432 20.12C49.2432 20.6 49.2232 21.05 49.1832 21.47C49.5232 21.45 49.8932 21.43 50.2932 21.41C50.7132 21.37 51.0732 21.35 51.3732 21.35V23H45.4332V21.68C46.2732 21.68 46.8232 21.45 47.0832 20.99C47.3432 20.53 47.4732 19.94 47.4732 19.22V5.78C47.4732 5.38 47.4732 4.99 47.4732 4.61C47.4732 4.21 47.4832 3.85 47.5032 3.53C47.1832 3.55 46.8232 3.57 46.4232 3.59C46.0432 3.61 45.7032 3.63 45.4032 3.65V2H49.3632L59.9232 15.89C60.2432 16.35 60.5432 16.77 60.8232 17.15C61.1232 17.51 61.3932 17.86 61.6332 18.2H61.6632L61.6932 5.87C61.6932 5.43 61.6932 5.01 61.6932 4.61C61.7132 4.19 61.7432 3.83 61.7832 3.53C61.4232 3.55 61.0432 3.57 60.6432 3.59C60.2432 3.61 59.8932 3.63 59.5932 3.65V2H65.5332V3.32C64.8932 3.34 64.4232 3.48 64.1232 3.74C63.8432 3.98 63.6632 4.34 63.5832 4.82C63.5232 5.3 63.4932 5.91 63.4932 6.65L63.4632 23.42H61.6332ZM78.722 15.41C78.722 14.55 78.592 13.93 78.332 13.55C78.092 13.17 77.722 12.94 77.222 12.86C76.722 12.78 76.102 12.75 75.362 12.77L73.622 12.83V19.07C73.622 19.61 73.612 20.09 73.592 20.51C73.592 20.91 73.572 21.24 73.532 21.5L78.692 21.44C79.472 21.44 80.172 21.3 80.792 21.02C81.412 20.74 81.902 20.27 82.262 19.61C82.622 18.95 82.802 18.05 82.802 16.91H84.122L83.942 23H68.342V21.68C69.002 21.66 69.472 21.53 69.752 21.29C70.052 21.03 70.242 20.66 70.322 20.18C70.402 19.7 70.442 19.09 70.442 18.35V5.87C70.442 4.95 70.472 4.17 70.532 3.53C70.192 3.55 69.822 3.57 69.422 3.59C69.022 3.61 68.662 3.63 68.342 3.65V2H82.982L83.132 7.43H81.812C81.812 6.29 81.622 5.42 81.242 4.82C80.882 4.22 80.402 3.82 79.802 3.62C79.222 3.42 78.592 3.33 77.912 3.35L75.812 3.41C75.172 3.41 74.692 3.52 74.372 3.74C74.072 3.94 73.872 4.28 73.772 4.76C73.672 5.22 73.622 5.85 73.622 6.65V11.36H78.572L78.392 8.78H80.042V15.41H78.722ZM102.693 8.48C102.673 6.76 102.383 5.48 101.823 4.64C101.263 3.8 100.273 3.38 98.8534 3.38H96.6934L96.6634 18.98C96.6634 19.52 96.6534 20.01 96.6334 20.45C96.6134 20.87 96.5934 21.21 96.5734 21.47C96.9534 21.45 97.3634 21.43 97.8034 21.41C98.2634 21.37 98.6734 21.35 99.0334 21.35V23H91.4134V21.68C92.0534 21.66 92.5134 21.53 92.7934 21.29C93.0934 21.03 93.2834 20.66 93.3634 20.18C93.4434 19.68 93.4834 19.07 93.4834 18.35V3.41L90.9634 3.44C89.7434 3.44 88.8534 3.85 88.2934 4.67C87.7334 5.49 87.4534 6.76 87.4534 8.48H86.0434L86.2234 2H103.923L104.103 8.48H102.693ZM130.452 23.42L119.292 8.6C119.072 8.34 118.862 8.07 118.662 7.79C118.462 7.51 118.252 7.22 118.032 6.92H118.002L118.092 18.59C118.092 19.11 118.082 19.62 118.062 20.12C118.062 20.6 118.042 21.05 118.002 21.47C118.342 21.45 118.712 21.43 119.112 21.41C119.532 21.37 119.892 21.35 120.192 21.35V23H114.252V21.68C115.092 21.68 115.642 21.45 115.902 20.99C116.162 20.53 116.292 19.94 116.292 19.22V5.78C116.292 5.38 116.292 4.99 116.292 4.61C116.292 4.21 116.302 3.85 116.322 3.53C116.002 3.55 115.642 3.57 115.242 3.59C114.862 3.61 114.522 3.63 114.222 3.65V2H118.182L128.742 15.89C129.062 16.35 129.362 16.77 129.642 17.15C129.942 17.51 130.212 17.86 130.452 18.2H130.482L130.512 5.87C130.512 5.43 130.512 5.01 130.512 4.61C130.532 4.19 130.562 3.83 130.602 3.53C130.242 3.55 129.862 3.57 129.462 3.59C129.062 3.61 128.712 3.63 128.412 3.65V2H134.352V3.32C133.712 3.34 133.242 3.48 132.942 3.74C132.662 3.98 132.482 4.34 132.402 4.82C132.342 5.3 132.312 5.91 132.312 6.65L132.282 23.42H130.452ZM143.621 23.48C142.221 23.48 140.961 23.16 139.841 22.52C138.741 21.86 137.871 20.94 137.231 19.76C136.591 18.56 136.271 17.15 136.271 15.53C136.271 14.13 136.581 12.82 137.201 11.6C137.841 10.38 138.721 9.4 139.841 8.66C140.981 7.9 142.311 7.52 143.831 7.52C144.931 7.52 145.961 7.76 146.921 8.24C147.881 8.7 148.651 9.44 149.231 10.46C149.831 11.46 150.131 12.78 150.131 14.42L139.811 14.6C139.811 15.98 139.961 17.2 140.261 18.26C140.581 19.3 141.091 20.11 141.791 20.69C142.491 21.27 143.401 21.56 144.521 21.56C145.341 21.56 146.211 21.35 147.131 20.93C148.051 20.49 148.801 19.9 149.381 19.16L150.311 19.97C149.691 20.87 148.991 21.58 148.211 22.1C147.451 22.6 146.661 22.95 145.841 23.15C145.041 23.37 144.301 23.48 143.621 23.48ZM139.931 13.04H146.861C146.861 11.92 146.621 10.97 146.141 10.19C145.661 9.39 144.911 8.99 143.891 8.99C142.811 8.99 141.931 9.33 141.251 10.01C140.591 10.67 140.151 11.68 139.931 13.04ZM158.951 23.48C157.251 23.48 156.001 22.99 155.201 22.01C154.401 21.03 154.001 19.33 154.001 16.91V12.2C154.001 11.86 154.001 11.51 154.001 11.15C154.021 10.79 154.061 10.42 154.121 10.04C153.781 10.04 153.421 10.05 153.041 10.07C152.661 10.09 152.321 10.11 152.021 10.13V8.54H152.741C153.741 8.54 154.481 8.45 154.961 8.27C155.461 8.09 155.821 7.9 156.041 7.7H157.181V16.85C157.181 18.45 157.401 19.64 157.841 20.42C158.281 21.18 159.021 21.55 160.061 21.53C160.721 21.53 161.371 21.33 162.011 20.93C162.651 20.53 163.171 20.06 163.571 19.52V12.41C163.571 11.97 163.581 11.56 163.601 11.18C163.621 10.8 163.661 10.42 163.721 10.04C163.361 10.04 162.991 10.05 162.611 10.07C162.231 10.09 161.881 10.11 161.561 10.13V8.54H162.431C163.311 8.54 164.001 8.45 164.501 8.27C165.001 8.09 165.361 7.9 165.581 7.7H166.721L166.691 18.74C166.691 19.06 166.681 19.5 166.661 20.06C166.641 20.6 166.611 21.08 166.571 21.5C166.911 21.48 167.261 21.46 167.621 21.44C168.001 21.42 168.351 21.41 168.671 21.41V23H163.901C163.861 22.68 163.821 22.38 163.781 22.1C163.741 21.82 163.711 21.55 163.691 21.29C163.091 21.87 162.371 22.38 161.531 22.82C160.711 23.26 159.851 23.48 158.951 23.48ZM170.757 21.74C171.357 21.74 171.777 21.6 172.017 21.32C172.257 21.04 172.397 20.65 172.437 20.15C172.497 19.65 172.527 19.07 172.527 18.41V12.17C172.527 11.85 172.527 11.51 172.527 11.15C172.547 10.79 172.587 10.42 172.647 10.04C172.307 10.04 171.947 10.05 171.567 10.07C171.187 10.09 170.837 10.11 170.517 10.13V8.54H171.537C172.377 8.54 173.007 8.45 173.427 8.27C173.867 8.09 174.197 7.9 174.417 7.7H175.497C175.537 7.98 175.567 8.37 175.587 8.87C175.607 9.37 175.627 9.93 175.647 10.55C176.207 9.73 176.907 9.02 177.747 8.42C178.587 7.82 179.487 7.52 180.447 7.52C181.067 7.52 181.597 7.69 182.037 8.03C182.497 8.35 182.727 8.88 182.727 9.62C182.727 9.94 182.597 10.3 182.337 10.7C182.077 11.1 181.637 11.29 181.017 11.27C180.597 11.25 180.227 11.09 179.907 10.79C179.607 10.49 179.467 10.08 179.487 9.56C179.007 9.56 178.527 9.71 178.047 10.01C177.567 10.29 177.117 10.67 176.697 11.15C176.277 11.63 175.937 12.15 175.677 12.71V19.28C175.677 19.64 175.667 20.01 175.647 20.39C175.647 20.75 175.617 21.12 175.557 21.5C175.877 21.48 176.207 21.47 176.547 21.47C176.887 21.45 177.197 21.43 177.477 21.41V23H170.757V21.74ZM192.878 23C192.838 22.68 192.808 22.4 192.788 22.16C192.768 21.92 192.738 21.67 192.698 21.41C191.318 22.79 189.778 23.48 188.078 23.48C186.638 23.48 185.548 23.13 184.808 22.43C184.088 21.71 183.728 20.82 183.728 19.76C183.728 18.84 183.998 18.04 184.538 17.36C185.078 16.68 185.788 16.13 186.668 15.71C187.548 15.27 188.508 14.95 189.548 14.75C190.588 14.53 191.608 14.42 192.608 14.42V12.65C192.608 12.01 192.548 11.42 192.428 10.88C192.308 10.32 192.058 9.87 191.678 9.53C191.298 9.17 190.728 8.99 189.968 8.99C189.448 8.97 188.928 9.07 188.408 9.29C187.888 9.49 187.488 9.83 187.208 10.31C187.368 10.47 187.468 10.66 187.508 10.88C187.568 11.08 187.598 11.27 187.598 11.45C187.598 11.73 187.478 12.05 187.238 12.41C186.998 12.75 186.588 12.91 186.008 12.89C185.528 12.89 185.158 12.73 184.898 12.41C184.658 12.07 184.538 11.68 184.538 11.24C184.538 10.52 184.798 9.88 185.318 9.32C185.858 8.76 186.578 8.32 187.478 8C188.398 7.68 189.438 7.52 190.598 7.52C192.318 7.52 193.598 7.97 194.438 8.87C195.298 9.77 195.728 11.19 195.728 13.13C195.728 14.23 195.718 15.26 195.698 16.22C195.698 17.16 195.698 18.18 195.698 19.28C195.698 19.58 195.688 19.92 195.668 20.3C195.648 20.68 195.618 21.08 195.578 21.5C195.918 21.48 196.268 21.46 196.628 21.44C196.988 21.42 197.328 21.41 197.648 21.41V23H192.878ZM192.608 15.8C191.748 15.84 190.878 15.99 189.998 16.25C189.138 16.49 188.418 16.87 187.838 17.39C187.278 17.89 187.008 18.55 187.028 19.37C187.068 20.05 187.298 20.55 187.718 20.87C188.138 21.19 188.618 21.35 189.158 21.35C189.858 21.35 190.478 21.22 191.018 20.96C191.558 20.68 192.088 20.3 192.608 19.82C192.588 19.6 192.578 19.38 192.578 19.16C192.578 18.92 192.578 18.67 192.578 18.41C192.578 18.23 192.578 17.9 192.578 17.42C192.598 16.94 192.608 16.4 192.608 15.8ZM199.225 21.74C199.825 21.74 200.245 21.6 200.485 21.32C200.725 21.04 200.865 20.65 200.905 20.15C200.965 19.65 200.995 19.07 200.995 18.41V4.85C200.995 4.51 200.995 4.17 200.995 3.83C201.015 3.47 201.045 3.09 201.085 2.69C200.745 2.69 200.385 2.71 200.005 2.75C199.625 2.77 199.285 2.78 198.985 2.78V1.19C200.325 1.19 201.275 1.1 201.835 0.919998C202.395 0.739998 202.785 0.549998 203.005 0.349998H204.145V19.28C204.145 19.64 204.135 20.01 204.115 20.39C204.095 20.75 204.065 21.12 204.025 21.5C204.345 21.48 204.665 21.47 204.985 21.47C205.325 21.45 205.635 21.43 205.915 21.41V23H199.225V21.74ZM228.23 8.48C228.13 7.46 227.87 6.54 227.45 5.72C227.03 4.9 226.44 4.25 225.68 3.77C224.94 3.27 224.03 3.03 222.95 3.05C221.83 3.05 220.94 3.36 220.28 3.98C219.62 4.6 219.29 5.35 219.29 6.23C219.29 7.01 219.51 7.67 219.95 8.21C220.39 8.73 220.98 9.2 221.72 9.62C222.48 10.04 223.33 10.46 224.27 10.88C225.03 11.2 225.79 11.56 226.55 11.96C227.33 12.34 228.04 12.79 228.68 13.31C229.32 13.83 229.83 14.45 230.21 15.17C230.61 15.87 230.81 16.7 230.81 17.66C230.81 18.8 230.52 19.81 229.94 20.69C229.36 21.55 228.53 22.23 227.45 22.73C226.37 23.23 225.08 23.48 223.58 23.48C222.72 23.48 221.81 23.35 220.85 23.09C219.89 22.85 219.03 22.48 218.27 21.98L218.42 23.24H216.59L216.47 16.64H217.91C218.07 18.38 218.69 19.7 219.77 20.6C220.85 21.48 222.16 21.92 223.7 21.92C224.82 21.92 225.78 21.62 226.58 21.02C227.38 20.4 227.78 19.55 227.78 18.47C227.78 17.65 227.54 16.96 227.06 16.4C226.58 15.84 225.96 15.36 225.2 14.96C224.44 14.56 223.65 14.18 222.83 13.82C221.73 13.34 220.68 12.82 219.68 12.26C218.7 11.68 217.9 10.97 217.28 10.13C216.66 9.29 216.35 8.23 216.35 6.95C216.35 6.41 216.45 5.83 216.65 5.21C216.85 4.57 217.19 3.97 217.67 3.41C218.15 2.85 218.8 2.4 219.62 2.06C220.46 1.7 221.51 1.52 222.77 1.52C223.53 1.52 224.38 1.63 225.32 1.85C226.28 2.07 227.15 2.46 227.93 3.02L227.81 1.76H229.61V8.48H228.23ZM233.13 21.74C233.73 21.74 234.15 21.6 234.39 21.32C234.63 21.04 234.77 20.65 234.81 20.15C234.87 19.65 234.9 19.07 234.9 18.41V12.2C234.9 11.86 234.91 11.52 234.93 11.18C234.95 10.84 234.98 10.46 235.02 10.04C234.68 10.04 234.32 10.06 233.94 10.1C233.56 10.12 233.21 10.13 232.89 10.13V8.54C234.23 8.54 235.18 8.45 235.74 8.27C236.3 8.09 236.69 7.9 236.91 7.7H238.05V19.28C238.05 19.64 238.04 20.01 238.02 20.39C238 20.75 237.97 21.12 237.93 21.5C238.23 21.48 238.55 21.47 238.89 21.47C239.23 21.45 239.54 21.43 239.82 21.41V23H233.13V21.74ZM236.34 4.94C235.82 4.94 235.38 4.75 235.02 4.37C234.66 3.97 234.48 3.49 234.48 2.93C234.48 2.37 234.67 1.9 235.05 1.52C235.43 1.12 235.86 0.919998 236.34 0.919998C236.86 0.919998 237.29 1.12 237.63 1.52C237.99 1.9 238.17 2.37 238.17 2.93C238.17 3.49 237.99 3.97 237.63 4.37C237.27 4.75 236.84 4.94 236.34 4.94ZM242.007 23V21.74C242.607 21.74 243.027 21.6 243.267 21.32C243.507 21.04 243.647 20.65 243.687 20.15C243.747 19.65 243.777 19.07 243.777 18.41V12.17C243.777 11.85 243.777 11.51 243.777 11.15C243.797 10.79 243.837 10.42 243.897 10.04C243.557 10.04 243.197 10.06 242.817 10.1C242.437 10.12 242.087 10.13 241.767 10.13V8.54C242.667 8.54 243.367 8.5 243.867 8.42C244.387 8.34 244.777 8.24 245.037 8.12C245.317 7.98 245.527 7.84 245.667 7.7H246.747C246.787 7.9 246.807 8.14 246.807 8.42C246.827 8.68 246.847 8.96 246.867 9.26C247.487 8.74 248.187 8.32 248.967 8C249.767 7.68 250.537 7.52 251.277 7.52C252.257 7.52 253.067 7.7 253.707 8.06C254.367 8.4 254.887 8.89 255.267 9.53C255.967 8.95 256.757 8.47 257.637 8.09C258.517 7.71 259.377 7.52 260.217 7.52C261.917 7.52 263.177 8.03 263.997 9.05C264.837 10.05 265.237 11.73 265.197 14.09L265.167 19.28C265.167 19.64 265.157 20.01 265.137 20.39C265.137 20.75 265.107 21.12 265.047 21.5C265.367 21.48 265.697 21.47 266.037 21.47C266.377 21.45 266.687 21.43 266.967 21.41V23H260.367V21.74C260.927 21.74 261.317 21.6 261.537 21.32C261.777 21.04 261.917 20.65 261.957 20.15C262.017 19.65 262.047 19.07 262.047 18.41V14.09C262.027 12.51 261.767 11.35 261.267 10.61C260.767 9.87 260.007 9.5 258.987 9.5C258.407 9.5 257.827 9.63 257.247 9.89C256.687 10.13 256.197 10.44 255.777 10.82C255.977 11.5 256.077 12.3 256.077 13.22C256.057 14.24 256.047 15.25 256.047 16.25C256.047 17.25 256.047 18.26 256.047 19.28C256.047 19.64 256.037 20.01 256.017 20.39C255.997 20.75 255.967 21.12 255.927 21.5C256.227 21.48 256.547 21.47 256.887 21.47C257.227 21.45 257.537 21.43 257.817 21.41V23H251.157V21.74C251.737 21.74 252.147 21.6 252.387 21.32C252.627 21.04 252.767 20.65 252.807 20.15C252.867 19.65 252.897 19.07 252.897 18.41V14.06C252.917 12.48 252.687 11.32 252.207 10.58C251.747 9.82 251.007 9.45 249.987 9.47C249.407 9.47 248.847 9.6 248.307 9.86C247.767 10.1 247.297 10.41 246.897 10.79C246.897 11.03 246.897 11.28 246.897 11.54C246.917 11.8 246.927 12.08 246.927 12.38V19.28C246.927 19.64 246.917 20.01 246.897 20.39C246.877 20.75 246.847 21.12 246.807 21.5C247.107 21.48 247.417 21.47 247.737 21.47C248.077 21.45 248.387 21.43 248.667 21.41V23H242.007ZM275.348 23.48C273.648 23.48 272.398 22.99 271.598 22.01C270.798 21.03 270.398 19.33 270.398 16.91V12.2C270.398 11.86 270.398 11.51 270.398 11.15C270.418 10.79 270.458 10.42 270.518 10.04C270.178 10.04 269.818 10.05 269.438 10.07C269.058 10.09 268.718 10.11 268.418 10.13V8.54H269.138C270.138 8.54 270.878 8.45 271.358 8.27C271.858 8.09 272.218 7.9 272.438 7.7H273.578V16.85C273.578 18.45 273.798 19.64 274.238 20.42C274.678 21.18 275.418 21.55 276.458 21.53C277.118 21.53 277.768 21.33 278.408 20.93C279.048 20.53 279.568 20.06 279.968 19.52V12.41C279.968 11.97 279.978 11.56 279.998 11.18C280.018 10.8 280.058 10.42 280.118 10.04C279.758 10.04 279.388 10.05 279.008 10.07C278.628 10.09 278.278 10.11 277.958 10.13V8.54H278.828C279.708 8.54 280.398 8.45 280.898 8.27C281.398 8.09 281.758 7.9 281.978 7.7H283.118L283.088 18.74C283.088 19.06 283.078 19.5 283.058 20.06C283.038 20.6 283.008 21.08 282.968 21.5C283.308 21.48 283.658 21.46 284.018 21.44C284.398 21.42 284.748 21.41 285.068 21.41V23H280.298C280.258 22.68 280.218 22.38 280.178 22.1C280.138 21.82 280.108 21.55 280.088 21.29C279.488 21.87 278.768 22.38 277.928 22.82C277.108 23.26 276.248 23.48 275.348 23.48ZM286.793 21.74C287.393 21.74 287.813 21.6 288.053 21.32C288.293 21.04 288.433 20.65 288.473 20.15C288.533 19.65 288.563 19.07 288.563 18.41V4.85C288.563 4.51 288.563 4.17 288.563 3.83C288.583 3.47 288.613 3.09 288.653 2.69C288.313 2.69 287.953 2.71 287.573 2.75C287.193 2.77 286.853 2.78 286.553 2.78V1.19C287.893 1.19 288.843 1.1 289.403 0.919998C289.963 0.739998 290.353 0.549998 290.573 0.349998H291.713V19.28C291.713 19.64 291.703 20.01 291.683 20.39C291.663 20.75 291.633 21.12 291.593 21.5C291.913 21.48 292.233 21.47 292.553 21.47C292.893 21.45 293.203 21.43 293.483 21.41V23H286.793V21.74ZM304.558 23C304.518 22.68 304.488 22.4 304.468 22.16C304.448 21.92 304.418 21.67 304.378 21.41C302.998 22.79 301.458 23.48 299.758 23.48C298.318 23.48 297.228 23.13 296.488 22.43C295.768 21.71 295.408 20.82 295.408 19.76C295.408 18.84 295.678 18.04 296.218 17.36C296.758 16.68 297.468 16.13 298.348 15.71C299.228 15.27 300.188 14.95 301.228 14.75C302.268 14.53 303.288 14.42 304.288 14.42V12.65C304.288 12.01 304.228 11.42 304.108 10.88C303.988 10.32 303.738 9.87 303.358 9.53C302.978 9.17 302.408 8.99 301.648 8.99C301.128 8.97 300.608 9.07 300.088 9.29C299.568 9.49 299.168 9.83 298.888 10.31C299.048 10.47 299.148 10.66 299.188 10.88C299.248 11.08 299.278 11.27 299.278 11.45C299.278 11.73 299.158 12.05 298.918 12.41C298.678 12.75 298.268 12.91 297.688 12.89C297.208 12.89 296.838 12.73 296.578 12.41C296.338 12.07 296.218 11.68 296.218 11.24C296.218 10.52 296.478 9.88 296.998 9.32C297.538 8.76 298.258 8.32 299.158 8C300.078 7.68 301.118 7.52 302.278 7.52C303.998 7.52 305.278 7.97 306.118 8.87C306.978 9.77 307.408 11.19 307.408 13.13C307.408 14.23 307.398 15.26 307.378 16.22C307.378 17.16 307.378 18.18 307.378 19.28C307.378 19.58 307.368 19.92 307.348 20.3C307.328 20.68 307.298 21.08 307.258 21.5C307.598 21.48 307.948 21.46 308.308 21.44C308.668 21.42 309.008 21.41 309.328 21.41V23H304.558ZM304.288 15.8C303.428 15.84 302.558 15.99 301.678 16.25C300.818 16.49 300.098 16.87 299.518 17.39C298.958 17.89 298.688 18.55 298.708 19.37C298.748 20.05 298.978 20.55 299.398 20.87C299.818 21.19 300.298 21.35 300.838 21.35C301.538 21.35 302.158 21.22 302.698 20.96C303.238 20.68 303.768 20.3 304.288 19.82C304.268 19.6 304.258 19.38 304.258 19.16C304.258 18.92 304.258 18.67 304.258 18.41C304.258 18.23 304.258 17.9 304.258 17.42C304.278 16.94 304.288 16.4 304.288 15.8ZM316.819 23.48C316.319 23.48 315.819 23.41 315.319 23.27C314.819 23.15 314.359 22.9 313.939 22.52C313.519 22.12 313.179 21.55 312.919 20.81C312.659 20.07 312.539 19.09 312.559 17.87L312.619 9.68H310.399V8C310.939 7.98 311.479 7.78 312.019 7.4C312.579 7.02 313.069 6.51 313.489 5.87C313.929 5.23 314.229 4.54 314.389 3.8H315.799V8H320.419V9.56L315.799 9.62L315.739 17.63C315.739 18.77 315.889 19.69 316.189 20.39C316.509 21.07 317.069 21.41 317.869 21.41C318.329 21.41 318.799 21.27 319.279 20.99C319.779 20.71 320.249 20.25 320.689 19.61L321.709 20.51C321.069 21.45 320.429 22.13 319.789 22.55C319.149 22.95 318.569 23.2 318.049 23.3C317.529 23.42 317.119 23.48 316.819 23.48ZM330.393 23.48C328.973 23.48 327.693 23.16 326.553 22.52C325.413 21.88 324.503 20.99 323.823 19.85C323.163 18.69 322.833 17.36 322.833 15.86C322.833 14.24 323.163 12.81 323.823 11.57C324.503 10.31 325.413 9.32 326.553 8.6C327.693 7.88 328.963 7.52 330.363 7.52C331.783 7.52 333.063 7.85 334.203 8.51C335.343 9.15 336.243 10.05 336.903 11.21C337.583 12.35 337.923 13.67 337.923 15.17C337.923 16.77 337.593 18.2 336.933 19.46C336.273 20.7 335.373 21.68 334.233 22.4C333.113 23.12 331.833 23.48 330.393 23.48ZM330.603 21.98C331.563 21.98 332.313 21.69 332.853 21.11C333.413 20.51 333.813 19.76 334.053 18.86C334.293 17.94 334.413 16.99 334.413 16.01C334.413 15.15 334.333 14.31 334.173 13.49C334.033 12.65 333.803 11.89 333.483 11.21C333.163 10.53 332.743 9.99 332.223 9.59C331.703 9.17 331.073 8.97 330.333 8.99C329.373 8.99 328.593 9.28 327.993 9.86C327.413 10.44 326.993 11.19 326.733 12.11C326.473 13.01 326.343 13.97 326.343 14.99C326.343 16.17 326.493 17.29 326.793 18.35C327.093 19.41 327.553 20.28 328.173 20.96C328.813 21.64 329.623 21.98 330.603 21.98ZM340.356 21.74C340.956 21.74 341.376 21.6 341.616 21.32C341.856 21.04 341.996 20.65 342.036 20.15C342.096 19.65 342.126 19.07 342.126 18.41V12.17C342.126 11.85 342.126 11.51 342.126 11.15C342.146 10.79 342.186 10.42 342.246 10.04C341.906 10.04 341.546 10.05 341.166 10.07C340.786 10.09 340.436 10.11 340.116 10.13V8.54H341.136C341.976 8.54 342.606 8.45 343.026 8.27C343.466 8.09 343.796 7.9 344.016 7.7H345.096C345.136 7.98 345.166 8.37 345.186 8.87C345.206 9.37 345.226 9.93 345.246 10.55C345.806 9.73 346.506 9.02 347.346 8.42C348.186 7.82 349.086 7.52 350.046 7.52C350.666 7.52 351.196 7.69 351.636 8.03C352.096 8.35 352.326 8.88 352.326 9.62C352.326 9.94 352.196 10.3 351.936 10.7C351.676 11.1 351.236 11.29 350.616 11.27C350.196 11.25 349.826 11.09 349.506 10.79C349.206 10.49 349.066 10.08 349.086 9.56C348.606 9.56 348.126 9.71 347.646 10.01C347.166 10.29 346.716 10.67 346.296 11.15C345.876 11.63 345.536 12.15 345.276 12.71V19.28C345.276 19.64 345.266 20.01 345.246 20.39C345.246 20.75 345.216 21.12 345.156 21.5C345.476 21.48 345.806 21.47 346.146 21.47C346.486 21.45 346.796 21.43 347.076 21.41V23H340.356V21.74Z" fill="black"/>
</svg>
